<svg width="300" height="300" xmlns="http://www.w3.org/2000/svg" class="icon">
 <!---->
 <defs>
  <!---->
 </defs>
 <!---->
 <defs>
  <!---->
 </defs>
 <!---->
 <g>
  <title>background</title>
  <rect fill="none" id="canvas_background" height="402" width="582" y="-1" x="-1"/>
 </g>
 <g>
  <title>Layer 1</title>
  <g transform="matrix(1.7182852281114358,0,0,1.7182852281114358,40.059777840368696,40.029572314818815) " fill="#FFFFFF" id="4ebf1bfd-875c-463e-90db-9a6ec36f42bd">
   <path id="svg_2" d="m33,84.996a13.001,13.001 0 1 0 -13,-13.002a13,13 0 0 0 13,13.002zm0,-22.002a9,9 0 1 1 -9,9a9.01,9.01 0 0 1 9,-9z"/>
   <path id="svg_3" d="m68.837,14.067a7.215,7.215 0 0 0 -10.257,0.166l-44.209,46.45a9.581,9.581 0 0 0 -2.371,5.903l0,17.607a20.397,20.397 0 0 1 4,-4.01l0,-13.597a5.642,5.642 0 0 1 1.268,-3.146l44.21,-46.45a3.254,3.254 0 0 1 4.51,-0.115l44.725,46.67a5.249,5.249 0 0 1 1.287,3.04l0,13.598a20.397,20.397 0 0 1 4,4.01l0,-17.607a9.19,9.19 0 0 0 -2.439,-5.85l-44.724,-46.669zm1.163,109.933l-12,0l0,0.788a7.092,7.092 0 0 1 -0.773,3.212l13.546,0a7.092,7.092 0 0 1 -0.773,-3.212l0,-0.788z"/>
   <path id="svg_4" d="m95,84.996a13.001,13.001 0 1 0 -13,-13.002a13,13 0 0 0 13,13.002zm0,-22.002a9,9 0 1 1 -9,9a9.01,9.01 0 0 1 9,-9z"/>
   <path id="svg_5" d="m108.339,82.501a17.117,17.117 0 0 1 -2.945,2.917a12.02,12.02 0 0 1 6.606,10.636l0,27.946l-34,0l0,-19.61l7.442,-7.752a2,2 0 1 0 -2.884,-2.77s-16.982,17.692 -17.028,17.752a0.966,0.966 0 0 1 -1.382,0.149l-1.805,-1.538a0.98,0.98 0 0 1 -0.185,-1.28l19.726,-21.607c0.013,-0.014 0.02,-0.03 0.033,-0.045a12.476,12.476 0 0 1 2.689,-1.882a17.117,17.117 0 0 1 -2.945,-2.917a16.408,16.408 0 0 0 -4.191,3.746l-13.47,14.756l-13.47,-14.755a16.408,16.408 0 0 0 -4.19,-3.747a17.117,17.117 0 0 1 -2.945,2.917a12.476,12.476 0 0 1 2.689,1.882c0.012,0.014 0.02,0.03 0.033,0.045l15.176,16.623a24.208,24.208 0 0 0 -2.286,2.518a4.946,4.946 0 0 0 -0.548,0.938l-13.017,-13.555a2,2 0 1 0 -2.884,2.77l7.442,7.752l0,19.61l-34,0l0,-27.946a12.02,12.02 0 0 1 6.606,-10.636a17.117,17.117 0 0 1 -2.945,-2.917a15.945,15.945 0 0 0 -7.661,13.553l0,28.734a3.254,3.254 0 0 0 3.294,3.212l35.412,0a3.254,3.254 0 0 0 3.294,-3.212l0,-16.232l5.37,5.594c2.3,2.397 7.065,2.721 9.26,0l5.37,-5.594l0,16.232a3.254,3.254 0 0 0 3.294,3.212l35.412,0a3.254,3.254 0 0 0 3.294,-3.212l0,-28.734a15.945,15.945 0 0 0 -7.661,-13.553zm19.114,-18.882l-58.588,-61.929a2.33,2.33 0 0 0 -0.132,-0.127c-2.383,-2.097 -6.551,-2.403 -9.903,1.076l-58.271,60.623a2,2 0 1 0 2.882,2.772l58.269,-60.62c1.771,-1.836 3.419,-1.638 4.322,-0.897l58.514,61.852a2.071,2.071 0 0 0 2.829,0.078a2.002,2.002 0 0 0 0.078,-2.828zm-33.453,-40.974a2,2 0 0 0 2,-2l0,-8.656l6,0l0,20.001a2,2 0 1 0 4,0l0,-22.002a2,2 0 0 0 -2,-2l-10,0a2,2 0 0 0 -2,2l0,10.657a2,2 0 0 0 2,2z"/>
   <path id="svg_6" d="m69,61.993a4.004,4.004 0 0 0 4,-4l0,-10a4.004,4.004 0 0 0 -4,-4.001l-10,0a4.004,4.004 0 0 0 -4,4l0,10.001a4.004,4.004 0 0 0 4,4l10,0zm-20,-14l10,0l0.003,10l-0.003,0l-10,-10z"/>
  </g>
 </g>
</svg>