<svg data-v-fde0c5aa="" xmlns="http://www.w3.org/2000/svg" viewBox="0 0 300 300" class="icon"><!----><defs data-v-fde0c5aa=""><!----></defs><rect data-v-fde0c5aa="" fill="#FF9985" x="0" y="0" width="300px" height="300px" class="logo-background-square"></rect><!----><defs data-v-fde0c5aa=""><!----></defs><g data-v-fde0c5aa="" id="4ebf1bfd-875c-463e-90db-9a6ec36f42bd" fill="#FFFFFF" stroke="none" transform="matrix(1.7182852281114358,0,0,1.7182852281114358,40.059777840368696,40.029572314818815)"><path d="M33 84.996a13.001 13.001 0 1 0-13-13.002 13 13 0 0 0 13 13.002zm0-22.002a9 9 0 1 1-9 9 9.01 9.01 0 0 1 9-9z"></path><path d="M68.837 14.067a7.215 7.215 0 0 0-10.257.166l-44.209 46.45A9.581 9.581 0 0 0 12 66.586v17.607a20.397 20.397 0 0 1 4-4.01V66.586a5.642 5.642 0 0 1 1.268-3.146l44.21-46.45a3.254 3.254 0 0 1 4.51-.115l44.725 46.67a5.249 5.249 0 0 1 1.287 3.04v13.598a20.397 20.397 0 0 1 4 4.01V66.586a9.19 9.19 0 0 0-2.439-5.85zM70 124H58v.788a7.092 7.092 0 0 1-.773 3.212h13.546a7.092 7.092 0 0 1-.773-3.212z"></path><path d="M95 84.996a13.001 13.001 0 1 0-13-13.002 13 13 0 0 0 13 13.002zm0-22.002a9 9 0 1 1-9 9 9.01 9.01 0 0 1 9-9z"></path><path d="M108.339 82.501a17.117 17.117 0 0 1-2.945 2.917A12.02 12.02 0 0 1 112 96.054V124H78v-19.61l7.442-7.752a2 2 0 1 0-2.884-2.77S65.576 111.56 65.53 111.62a.966.966 0 0 1-1.382.149l-1.805-1.538a.98.98 0 0 1-.185-1.28l19.726-21.607c.013-.014.02-.03.033-.045a12.476 12.476 0 0 1 2.689-1.882 17.117 17.117 0 0 1-2.945-2.917 16.408 16.408 0 0 0-4.191 3.746L64 101.002 50.53 86.247A16.408 16.408 0 0 0 46.34 82.5a17.117 17.117 0 0 1-2.945 2.917 12.476 12.476 0 0 1 2.689 1.882c.012.014.02.03.033.045l15.176 16.623a24.208 24.208 0 0 0-2.286 2.518 4.946 4.946 0 0 0-.548.938L45.442 93.868a2 2 0 1 0-2.884 2.77L50 104.39V124H16V96.054a12.02 12.02 0 0 1 6.606-10.636 17.117 17.117 0 0 1-2.945-2.917A15.945 15.945 0 0 0 12 96.054v28.734A3.254 3.254 0 0 0 15.294 128h35.412A3.254 3.254 0 0 0 54 124.788v-16.232l5.37 5.594c2.3 2.397 7.065 2.721 9.26 0l5.37-5.594v16.232A3.254 3.254 0 0 0 77.294 128h35.412a3.254 3.254 0 0 0 3.294-3.212V96.054a15.945 15.945 0 0 0-7.661-13.553zM127.453 63.619L68.865 1.69a2.33 2.33 0 0 0-.132-.127C66.35-.534 62.182-.84 58.83 2.639L.559 63.262a2 2 0 1 0 2.882 2.772L61.71 5.414c1.771-1.836 3.419-1.638 4.322-.897l58.514 61.852a2.071 2.071 0 0 0 2.829.078 2.002 2.002 0 0 0 .078-2.828zM94 22.645a2 2 0 0 0 2-2v-8.656h6V31.99a2 2 0 1 0 4 0V9.988a2 2 0 0 0-2-2H94a2 2 0 0 0-2 2v10.657a2 2 0 0 0 2 2z"></path><path d="M69 61.993a4.004 4.004 0 0 0 4-4v-10a4.004 4.004 0 0 0-4-4.001H59a4.004 4.004 0 0 0-4 4v10.001a4.004 4.004 0 0 0 4 4zm-10-14h10l.003 10H59z"></path></g><!----></svg>